<?xml version="1.0" encoding="UTF-8"?>
<svg version="1.1" xmlns="http://www.w3.org/2000/svg" width="180" height="180">
<path d="M0 0 C1.29744141 -0.04350586 1.29744141 -0.04350586 2.62109375 -0.08789062 C10.88029198 -0.16837756 17.39598971 2.38930418 23.9375 7.4375 C24.59878906 7.93507813 25.26007813 8.43265625 25.94140625 8.9453125 C26.41449219 9.39648438 26.88757813 9.84765625 27.375 10.3125 C27.375 10.9725 27.375 11.6325 27.375 12.3125 C28.035 12.3125 28.695 12.3125 29.375 12.3125 C32.4457835 16.73442825 33.48317875 20.42280214 33.55200195 25.73876953 C33.57125481 27.04130173 33.57125481 27.04130173 33.59089661 28.37014771 C33.59828354 29.30245209 33.60567047 30.23475647 33.61328125 31.1953125 C33.621353 32.164758 33.62942474 33.13420349 33.63774109 34.13302612 C33.65156254 36.18567121 33.66229335 38.2383391 33.67016602 40.29101562 C33.68166321 42.37799878 33.70207894 44.46495306 33.73168945 46.55175781 C33.77462704 49.57897783 33.79057321 52.60532471 33.80078125 55.6328125 C33.81828934 56.5529715 33.83579742 57.47313049 33.85383606 58.4211731 C33.82013388 68.64238756 30.37424841 75.99510394 23.375 83.3125 C24.73431641 83.44205078 24.73431641 83.44205078 26.12109375 83.57421875 C35.04145402 84.60312803 42.39365811 85.66885549 48.44140625 92.72265625 C51.15612066 96.44647662 53.52668419 99.72099068 54.375 104.3125 C57.345 104.8075 57.345 104.8075 60.375 105.3125 C60.375 126.4325 60.375 147.5525 60.375 169.3125 C70.605 169.3125 80.835 169.3125 91.375 169.3125 C91.375 172.9425 91.375 176.5725 91.375 180.3125 C31.975 180.3125 -27.425 180.3125 -88.625 180.3125 C-88.625 176.6825 -88.625 173.0525 -88.625 169.3125 C-78.395 169.3125 -68.165 169.3125 -57.625 169.3125 C-57.625 148.1925 -57.625 127.0725 -57.625 105.3125 C-54.655 104.8175 -54.655 104.8175 -51.625 104.3125 C-50.37559178 102.52727775 -50.37559178 102.52727775 -49.9375 100.3125 C-49.36328125 98.125 -49.36328125 98.125 -48.625 96.3125 C-47.635 95.9825 -46.645 95.6525 -45.625 95.3125 C-45.41875 94.57 -45.2125 93.8275 -45 93.0625 C-42.77200174 88.60650348 -39.19441483 87.02057594 -34.625 85.3125 C-29.9794341 84.36282689 -25.34344935 83.76219574 -20.625 83.3125 C-21.5325 82.36375 -22.44 81.415 -23.375 80.4375 C-31.80035961 70.33505459 -31.08758169 59.82790455 -30.625 47.3125 C-31.54297363 47.01702271 -31.54297363 47.01702271 -32.47949219 46.71557617 C-33.28547852 46.45236572 -34.09146484 46.18915527 -34.921875 45.91796875 C-35.71948242 45.65910889 -36.51708984 45.40024902 -37.33886719 45.13354492 C-44.05371921 42.72196361 -47.57097475 38.54222482 -50.625 32.3125 C-51.85777723 28.75114356 -51.72493314 25.30581403 -51.6875 21.5625 C-51.67847656 20.39203125 -51.66945312 19.2215625 -51.66015625 18.015625 C-51.64855469 17.12359375 -51.63695312 16.2315625 -51.625 15.3125 C-50.70460937 15.24933594 -49.78421875 15.18617187 -48.8359375 15.12109375 C-38.63701065 14.13443586 -31.63141713 11.35826381 -22.625 6.3125 C-20.73495396 5.34280275 -18.83971863 4.38309564 -16.9375 3.4375 C-16.17050781 3.04820313 -15.40351562 2.65890625 -14.61328125 2.2578125 C-9.7306502 -0.06359558 -5.29965762 0.05768858 0 0 Z M-24.6875 21.5 C-29.01954698 24.17296516 -33.70164379 25.15612452 -38.625 26.3125 C-37.04980581 30.74183046 -35.87441896 32.18779052 -31.625 34.3125 C-31.06941406 34.66054688 -30.51382813 35.00859375 -29.94140625 35.3671875 C-23.83474487 37.85928203 -14.91340372 37.36792931 -8.6796875 35.3671875 C-4.48252282 33.16471494 -1.33969142 30.88501047 0.375 26.3125 C0.375 24.6625 0.375 23.0125 0.375 21.3125 C4.665 21.3125 8.955 21.3125 13.375 21.3125 C13.375 23.2925 13.375 25.2725 13.375 27.3125 C14.05899686 29.89648815 14.85045033 30.96118498 17.06640625 32.4453125 C18.80777675 33.45143768 20.58960687 34.3867406 22.375 35.3125 C22.68244405 29.47106311 22.36938711 25.52852915 19.375 20.3125 C14.55039788 15.24317169 9.7266792 12.04914944 2.6328125 11.35546875 C-7.41951253 11.16416153 -16.65964523 15.76581802 -24.6875 21.5 Z M6.375 39.3125 C5.85550781 39.65023437 5.33601563 39.98796875 4.80078125 40.3359375 C4.10339844 40.78195313 3.40601562 41.22796875 2.6875 41.6875 C2.00300781 42.12835938 1.31851563 42.56921875 0.61328125 43.0234375 C-3.96660767 45.66106986 -8.21548072 46.69903263 -13.4375 47.4375 C-14.59894531 47.60507812 -15.76039062 47.77265625 -16.95703125 47.9453125 C-18.27767578 48.12707031 -18.27767578 48.12707031 -19.625 48.3125 C-19.9219589 56.21490638 -19.80574508 64.33488016 -15.625 71.3125 C-14.614375 71.993125 -13.60375 72.67375 -12.5625 73.375 C-10.921875 74.6328125 -10.921875 74.6328125 -9.625 76.3125 C-9.328125 78.8671875 -9.328125 78.8671875 -9.3125 81.75 C-9.19370205 85.25691536 -9.10454288 86.76988572 -6.75390625 89.4296875 C-4.35100615 91.14209906 -2.4556013 92.45875412 0.375 93.3125 C2.99821886 92.61529599 2.99821886 92.61529599 5.375 91.3125 C6.4475 90.838125 7.52 90.36375 8.625 89.875 C11.88625642 86.83610197 11.71448224 86.14018615 11.875 81.875 C11.90851563 80.90046875 11.94203125 79.9259375 11.9765625 78.921875 C12.59154219 74.89436094 15.2121385 73.65301751 18.375 71.3125 C21.54368547 65.46910664 22.51670911 59.07435624 22.4375 52.5 C22.42847656 51.52417969 22.41945312 50.54835938 22.41015625 49.54296875 C22.39855469 48.80691406 22.38695312 48.07085937 22.375 47.3125 C21.39660156 46.94898438 21.39660156 46.94898438 20.3984375 46.578125 C15.26286806 44.60873259 10.80557105 42.5771313 6.375 39.3125 Z M-34.625 99.3125 C-36.605 102.2825 -36.605 102.2825 -38.625 105.3125 C-27.075 105.3125 -15.525 105.3125 -3.625 105.3125 C-5.275 103.9925 -6.925 102.6725 -8.625 101.3125 C-9.15222656 100.82265625 -9.67945312 100.3328125 -10.22265625 99.828125 C-14.76174185 95.90635504 -18.87243667 95.68175324 -24.75 95.9609375 C-28.77417221 96.45302378 -31.16428105 97.14955066 -34.625 99.3125 Z M6.375 104.3125 C6.375 104.6425 6.375 104.9725 6.375 105.3125 C17.925 105.3125 29.475 105.3125 41.375 105.3125 C37.06831912 98.77552531 37.06831912 98.77552531 30.375 96.3125 C20.32202189 94.61033149 14.0438083 97.88103488 6.375 104.3125 Z M-45.625 117.3125 C-45.625 134.4725 -45.625 151.6325 -45.625 169.3125 C-14.605 169.3125 16.415 169.3125 48.375 169.3125 C48.375 152.1525 48.375 134.9925 48.375 117.3125 C17.355 117.3125 -13.665 117.3125 -45.625 117.3125 Z " fill="#000000" transform="translate(88.625,-0.3125)"/>
<path d="M0 0 C3.96 0 7.92 0 12 0 C12 3.96 12 7.92 12 12 C8.04 12 4.08 12 0 12 C0 8.04 0 4.08 0 0 Z " fill="#000000" transform="translate(84,137)"/>
</svg>
